<svg xmlns="http://www.w3.org/2000/svg" width="600" height="800" viewBox="0 0 600 800">
  <!-- Elastic side panel — tan -->
  <!-- Front elastic panel (visible on side profile) -->
  <path d="
    M 230 210
    C 228 215, 225 230, 222 260
    L 218 330
    C 215 370, 212 410, 210 440
    C 208 460, 206 475, 204 485
  " fill="none" stroke="none"/>
  <path d="
    M 235 208
    L 232 260
    L 228 340
    L 222 440
    L 210 480
    L 198 480
    L 208 440
    L 214 340
    L 218 260
    L 222 208
    Z
  " fill="#C19A6B" opacity="0.85"/>
  <!-- Elastic texture lines -->
  <line x1="228" y1="250" x2="222" y2="250" stroke="#A07848" stroke-width="0.5" opacity="0.6"/>
  <line x1="227" y1="280" x2="220" y2="280" stroke="#A07848" stroke-width="0.5" opacity="0.6"/>
  <line x1="226" y1="310" x2="219" y2="310" stroke="#A07848" stroke-width="0.5" opacity="0.6"/>
  <line x1="225" y1="340" x2="217" y2="340" stroke="#A07848" stroke-width="0.5" opacity="0.6"/>
  <line x1="223" y1="370" x2="215" y2="370" stroke="#A07848" stroke-width="0.5" opacity="0.6"/>
  <line x1="221" y1="400" x2="213" y2="400" stroke="#A07848" stroke-width="0.5" opacity="0.6"/>
  <line x1="218" y1="430" x2="210" y2="430" stroke="#A07848" stroke-width="0.5" opacity="0.6"/>
  <line x1="215" y1="460" x2="205" y2="460" stroke="#A07848" stroke-width="0.5" opacity="0.6"/>
</svg>
