<svg xmlns="http://www.w3.org/2000/svg" width="600" height="800" viewBox="0 0 600 800">
  <g transform="translate(80, 120)">
    <!-- Brass-screwed sole -->
    <path d="
      M 78 462
      L 75 468
      C 73 472, 72 476, 74 480
      L 85 484
      C 140 492, 220 488, 268 472
      C 310 458, 338 436, 346 412
    " fill="#A0724A" stroke="#7A5530" stroke-width="1.8"/>
    <!-- Welt -->
    <path d="
      M 74 478
      L 85 482
      C 140 490, 218 486, 266 470
      C 308 456, 336 434, 344 410
    " fill="none" stroke="#8B6340" stroke-width="2.5" opacity="0.6"/>
    <!-- Brass screws along the sole -->
    <circle cx="110" cy="478" r="3.5" fill="#DAA520" stroke="#B8860B" stroke-width="1.2"/>
    <circle cx="110" cy="478" r="1.2" fill="#B8860B"/>
    <circle cx="155" cy="482" r="3.5" fill="#DAA520" stroke="#B8860B" stroke-width="1.2"/>
    <circle cx="155" cy="482" r="1.2" fill="#B8860B"/>
    <circle cx="200" cy="482" r="3.5" fill="#DAA520" stroke="#B8860B" stroke-width="1.2"/>
    <circle cx="200" cy="482" r="1.2" fill="#B8860B"/>
    <circle cx="245" cy="478" r="3.5" fill="#DAA520" stroke="#B8860B" stroke-width="1.2"/>
    <circle cx="245" cy="478" r="1.2" fill="#B8860B"/>
    <circle cx="288" cy="468" r="3.5" fill="#DAA520" stroke="#B8860B" stroke-width="1.2"/>
    <circle cx="288" cy="468" r="1.2" fill="#B8860B"/>
    <circle cx="322" cy="452" r="3.5" fill="#DAA520" stroke="#B8860B" stroke-width="1.2"/>
    <circle cx="322" cy="452" r="1.2" fill="#B8860B"/>
    <!-- Sole edge -->
    <path d="M 74 480 L 85 484 C 140 492, 220 488, 268 472 C 312 458, 340 435, 348 410"
      fill="none" stroke="#6B4226" stroke-width="0.8" opacity="0.4"/>
  </g>
</svg>
