<svg xmlns="http://www.w3.org/2000/svg" width="600" height="800" viewBox="0 0 600 800">
  <g transform="translate(80, 120)">
    <!-- Elastic side panel — tan — Chelsea boot V-gusset -->
    <path d="
      M 335 50
      C 338 80, 340 130, 340 180
      L 338 250
      L 335 300
      C 332 330, 328 350, 322 370
      L 318 385
      L 308 385
      C 312 365, 318 340, 322 310
      L 326 250
      L 328 180
      C 328 130, 326 80, 323 50
      Z
    " fill="#C19A6B" stroke="#A07848" stroke-width="1"/>
    <!-- Woven elastic texture -->
    <line x1="332" y1="80" x2="325" y2="80" stroke="#A07848" stroke-width="0.6" opacity="0.5"/>
    <line x1="332" y1="100" x2="325" y2="100" stroke="#A07848" stroke-width="0.6" opacity="0.5"/>
    <line x1="332" y1="120" x2="325" y2="120" stroke="#A07848" stroke-width="0.6" opacity="0.5"/>
    <line x1="333" y1="140" x2="326" y2="140" stroke="#A07848" stroke-width="0.6" opacity="0.5"/>
    <line x1="334" y1="160" x2="327" y2="160" stroke="#A07848" stroke-width="0.6" opacity="0.5"/>
    <line x1="335" y1="180" x2="327" y2="180" stroke="#A07848" stroke-width="0.6" opacity="0.5"/>
    <line x1="335" y1="200" x2="327" y2="200" stroke="#A07848" stroke-width="0.6" opacity="0.5"/>
    <line x1="334" y1="220" x2="327" y2="220" stroke="#A07848" stroke-width="0.6" opacity="0.5"/>
    <line x1="333" y1="240" x2="326" y2="240" stroke="#A07848" stroke-width="0.6" opacity="0.5"/>
    <line x1="332" y1="260" x2="325" y2="260" stroke="#A07848" stroke-width="0.6" opacity="0.5"/>
    <line x1="330" y1="280" x2="323" y2="280" stroke="#A07848" stroke-width="0.6" opacity="0.5"/>
    <line x1="328" y1="300" x2="320" y2="300" stroke="#A07848" stroke-width="0.6" opacity="0.5"/>
    <line x1="325" y1="320" x2="316" y2="320" stroke="#A07848" stroke-width="0.6" opacity="0.5"/>
    <line x1="322" y1="340" x2="314" y2="340" stroke="#A07848" stroke-width="0.6" opacity="0.5"/>
    <line x1="320" y1="360" x2="311" y2="360" stroke="#A07848" stroke-width="0.6" opacity="0.5"/>
  </g>
</svg>
